<svg width="78" height="80" viewBox="0 0 78 80" fill="none" xmlns="http://www.w3.org/2000/svg">
<path d="M40.0928 24L40.1934 24.0098C40.4213 24.0563 40.5928 24.2583 40.5928 24.5V26.7646C45.3934 27.224 48.5185 30.0823 48.8291 33.8359C48.8406 33.9751 48.7937 34.113 48.6992 34.2158C48.6046 34.3186 48.4708 34.3779 48.3311 34.3779H44.2549C44.017 34.3779 43.8119 34.2097 43.7646 33.9766C43.4879 32.6113 42.4154 31.5364 40.5928 31.1699V37.6162L42.041 37.96H42.04C44.2476 38.4808 46.0377 39.257 47.2783 40.4443C48.5373 41.6492 49.1875 43.2354 49.1875 45.2666C49.1874 47.5066 48.3392 49.4226 46.7559 50.8203C45.27 52.1319 43.1695 52.9579 40.5928 53.2109V55.5C40.5928 55.7761 40.3689 56 40.0928 56H37.7676C37.4915 55.9999 37.2676 55.7761 37.2676 55.5V53.2324C34.7832 52.995 32.7919 52.1847 31.3594 50.9512C29.9293 49.7198 29.0816 48.0891 28.8516 46.2627L28.8145 45.8945C28.8035 45.7556 28.8507 45.618 28.9453 45.5156C29.0399 45.4133 29.1731 45.3555 29.3125 45.3555H33.4512L33.5391 45.3633C33.739 45.399 33.9011 45.5537 33.9414 45.7588C34.2184 47.174 35.3683 48.2902 37.2676 48.7344V41.8516L36.1162 41.5674V41.5684C34.1043 41.0988 32.4435 40.2816 31.2822 39.0889C30.1117 37.8865 29.4786 36.3331 29.4785 34.4668C29.4785 30.3227 32.7078 27.4443 37.2676 26.8398V24.5L37.2783 24.3994C37.3249 24.1716 37.526 24.0001 37.7676 24H40.0928ZM40.5928 48.8457C41.6503 48.6732 42.457 48.3124 43.0127 47.8262C43.6496 47.2688 43.9911 46.5224 43.9912 45.6113C43.9912 44.8286 43.7278 44.2497 43.1777 43.7793C42.6405 43.32 41.8034 42.9447 40.5928 42.6406V48.8457ZM37.2676 31.2695C35.6037 31.7496 34.7217 32.864 34.7217 34.2227C34.7217 34.8917 34.9701 35.4352 35.4639 35.8828C35.876 36.2564 36.4732 36.571 37.2676 36.8135V31.2695Z" fill="white" stroke="white" stroke-linejoin="round"/>
<path d="M39 8.5C47.3543 8.5 55.366 11.8192 61.2734 17.7266L61.8203 18.2861C67.3856 24.1347 70.5 31.9068 70.5 40C70.5 48.0932 67.3856 55.8653 61.8203 61.7139L61.2734 62.2734C55.366 68.1808 47.3543 71.5 39 71.5C30.9068 71.5 23.1347 68.3856 17.2861 62.8203L16.7266 62.2734C10.8192 56.366 7.5 48.3543 7.5 40C7.5 31.6457 10.8192 23.634 16.7266 17.7266L17.2861 17.1797C23.1347 11.6144 30.9068 8.5 39 8.5ZM39 13.375C32.1592 13.375 25.5899 16.0077 20.6465 20.7119L20.1729 21.1729C15.1797 26.166 12.375 32.9386 12.375 40C12.375 47.0614 15.1797 53.834 20.1729 58.8271L20.6465 59.2881C25.5899 63.9923 32.1592 66.625 39 66.625C46.0614 66.625 52.834 63.8203 57.8271 58.8271L58.2881 58.3535C62.9923 53.4101 65.625 46.8408 65.625 40C65.625 33.1592 62.9923 26.5899 58.2881 21.6465L57.8271 21.1729C52.834 16.1797 46.0614 13.375 39 13.375Z" fill="white" stroke="white" stroke-linejoin="round"/>
<path d="M39.584 16.2568C42.5039 16.3286 45.3874 16.9386 48.0889 18.0576L48.626 18.2881C51.2959 19.4718 53.7264 21.1385 55.7939 23.2061L56.2021 23.625C58.2157 25.7403 59.8235 28.2099 60.9424 30.9111C62.1359 33.7926 62.75 36.8811 62.75 40C62.75 42.9239 62.2101 45.821 61.1592 48.5459L60.9424 49.0889C59.7488 51.9703 57.9993 54.5886 55.7939 56.7939C53.7264 58.8615 51.2959 60.5282 48.626 61.7119L48.0889 61.9424C45.2074 63.1359 42.1189 63.75 39 63.75C32.8979 63.75 27.0376 61.4022 22.6279 57.2061L22.2061 56.7939C17.7521 52.34 15.25 46.2989 15.25 40C15.25 33.7011 17.7521 27.66 22.2061 23.2061L22.6279 22.7939C27.0376 18.5978 32.8979 16.25 39 16.25L39.584 16.2568ZM39 19.1875C33.6526 19.1875 28.5176 21.2456 24.6533 24.9229L24.2832 25.2832C20.3801 29.1863 18.1875 34.4802 18.1875 40C18.1875 45.5198 20.3801 50.8137 24.2832 54.7168L24.6533 55.0771C28.5176 58.7544 33.6526 60.8125 39 60.8125C44.5198 60.8125 49.8137 58.6199 53.7168 54.7168L54.0771 54.3467C57.7544 50.4824 59.8125 45.3474 59.8125 40C59.8125 34.6526 57.7544 29.5176 54.0771 25.6533L53.7168 25.2832C49.8137 21.3801 44.5198 19.1875 39 19.1875Z" fill="white" stroke="white" stroke-linejoin="round"/>
</svg>
