<?xml version="1.0" encoding="UTF-8" standalone="no"?>
<!-- Created with Inkscape (http://www.inkscape.org/) -->

<svg
   width="17.383493mm"
   height="7.4224277mm"
   viewBox="0 0 17.383493 7.4224277"
   version="1.1"
   id="svg1"
   xmlns:inkscape="http://www.inkscape.org/namespaces/inkscape"
   xmlns:sodipodi="http://sodipodi.sourceforge.net/DTD/sodipodi-0.dtd"
   xmlns="http://www.w3.org/2000/svg"
   xmlns:svg="http://www.w3.org/2000/svg">
  <sodipodi:namedview
     id="namedview1"
     pagecolor="#ffffff"
     bordercolor="#000000"
     borderopacity="0.25"
     inkscape:showpageshadow="2"
     inkscape:pageopacity="0.0"
     inkscape:pagecheckerboard="0"
     inkscape:deskcolor="#d1d1d1"
     inkscape:document-units="mm"
     showguides="true">
    <sodipodi:guide
       position="46.927125,252.58451"
       orientation="0,-1"
       id="guide28"
       inkscape:locked="false" />
  </sodipodi:namedview>
  <defs
     id="defs1" />
  <g
     inkscape:label="Capa 1"
     inkscape:groupmode="layer"
     id="layer1"
     transform="translate(-30.340495,-54.414095)">
    <path
       style="font-size:12px;font-family:'Snap ITC';-inkscape-font-specification:'Snap ITC';text-align:center;text-anchor:middle;white-space:pre;fill:#ffffff;stroke:#000000;stroke-width:3.77953;stroke-linecap:round;stroke-linejoin:round;paint-order:stroke fill markers"
       d="m 126.69336,211.26999 -0.86719,0.82617 0.35156,3.04688 q -0.97265,0.7207 -2.01562,1.07812 -1.04297,0.35156 -2.18555,0.35156 -0.93164,0 -1.80468,-0.26953 -0.87305,-0.26953 -1.60547,-0.78515 -0.96094,-0.68555 -1.48243,-1.63477 -0.52148,-0.95508 -0.52148,-2.02734 0,-1.00196 0.46289,-1.82813 0.46875,-0.83203 1.34766,-1.40039 0.82031,-0.5332 1.8164,-0.79687 1.00196,-0.26953 2.17969,-0.26953 0.87305,0 1.65234,0.21093 0.78516,0.20508 1.42383,0.60352 l 0.28711,-0.79102 0.45703,3.18164 q -0.75586,-0.90234 -1.53515,-1.32421 -0.77344,-0.42774 -1.65821,-0.42774 -1.19531,0 -1.92773,0.79102 -0.72656,0.79101 -0.72656,2.09765 0,1.16016 0.67383,1.88672 0.67382,0.7207 1.75195,0.7207 0.0234,0 0.14648,-0.006 0.12305,-0.0117 0.21094,-0.0176 l 0.51563,-1.70508 -1.23633,0.14062 -0.38086,0.72071 -0.15821,-3.58594 0.60352,0.83789 z m 3.57422,0.22852 q -0.15235,0.17578 -0.22266,0.375 -0.0703,0.19921 -0.0703,0.46289 0,0.51562 0.33398,0.86718 0.33985,0.34571 0.83203,0.34571 0.17579,0 0.36329,-0.0703 0.1875,-0.0762 0.38086,-0.21679 -0.375,-0.69141 -0.78516,-1.13086 -0.4043,-0.44531 -0.83203,-0.63281 z m 4.10156,-1.22461 -0.86133,0.39257 0.17578,4.91016 0.67383,0.51563 -2.57812,0.32226 0.43945,-1.78711 q -0.53906,0.88477 -1.24805,1.33594 -0.70312,0.45117 -1.53515,0.45117 -0.9961,0 -1.68164,-0.81445 -0.67969,-0.82031 -0.67969,-2.02735 0,-1.54101 0.73242,-2.53125 0.73242,-0.99609 1.8457,-0.99609 0.84375,0 1.48243,0.44531 0.64453,0.43946 1.08398,1.31836 l -0.36914,-1.81054 z m 7.40039,0.28711 -4.19531,4.39453 3,-1.06055 0.89648,-1.41211 -0.31054,3.45703 -6.70899,0.60938 3.09375,-4.91016 -2.07422,0.42188 -0.68554,1.31836 -0.24024,-3.31055 z m 2.41406,2.63086 q 0.14063,0.17578 0.30469,0.25781 0.16992,0.0762 0.4043,0.0762 0.45703,0 0.75586,-0.3457 0.29883,-0.35157 0.29883,-0.89063 0,-0.24023 -0.0762,-0.43945 -0.0703,-0.19922 -0.22265,-0.38672 -0.57422,0.36914 -0.94336,0.80273 -0.36328,0.4336 -0.52149,0.92579 z m -0.62695,2.01562 0.9375,3.19922 0.81445,0.375 -3.5625,0.25195 0.52735,-0.60351 0.28711,-7.71094 -0.80274,-0.375 2.92969,-0.28711 -0.66211,1.46484 q 0.57422,-0.72656 1.23047,-1.0957 0.66211,-0.36914 1.38867,-0.36914 1.02539,0 1.71094,0.79687 0.68555,0.79688 0.68555,1.99805 0,0.82617 -0.28125,1.55274 -0.2754,0.7207 -0.78516,1.24218 -0.39258,0.4043 -0.89063,0.61524 -0.49218,0.20508 -1.05468,0.20508 -0.69727,0 -1.28907,-0.29883 -0.58593,-0.30469 -1.18359,-0.96094 z m 9.09961,-3.70898 q -0.15234,0.17578 -0.22266,0.375 -0.0703,0.19921 -0.0703,0.46289 0,0.51562 0.33399,0.86718 0.33984,0.34571 0.83203,0.34571 0.17578,0 0.36328,-0.0703 0.1875,-0.0762 0.38086,-0.21679 -0.375,-0.69141 -0.78516,-1.13086 -0.4043,-0.44531 -0.83203,-0.63281 z m 4.10156,-1.22461 -0.86133,0.39257 0.17579,4.91016 0.67382,0.51563 -2.57812,0.32226 0.43945,-1.78711 q -0.53906,0.88477 -1.24805,1.33594 -0.70312,0.45117 -1.53515,0.45117 -0.9961,0 -1.68164,-0.81445 -0.67969,-0.82031 -0.67969,-2.02735 0,-1.54101 0.73242,-2.53125 0.73242,-0.99609 1.84571,-0.99609 0.84375,0 1.48242,0.44531 0.64453,0.43946 1.08398,1.31836 l -0.36914,-1.81054 z m 6.91992,6.20507 -0.64453,-1.30078 q -0.70312,0.65039 -1.39453,0.96094 -0.68555,0.30469 -1.4414,0.30469 -1.37696,0 -2.26758,-0.81445 -0.88477,-0.81446 -0.88477,-2.08008 0,-0.73828 0.26367,-1.40625 0.26368,-0.67383 0.74414,-1.14844 0.43946,-0.43945 0.99024,-0.66211 0.55664,-0.22852 1.20703,-0.22852 0.64453,0 1.22461,0.23438 0.58594,0.22852 1.16016,0.71484 l 0.24023,-1.03125 0.33984,2.58985 q -0.22265,-0.2461 -0.5039,-0.375 -0.27539,-0.12891 -0.5918,-0.12891 -0.43359,0 -0.7207,0.29297 -0.28711,0.29297 -0.28711,0.73828 0,0.43945 0.32226,0.75586 0.32813,0.31641 0.77344,0.31641 0.30469,0 0.58008,-0.15235 0.28125,-0.1582 0.60351,-0.50976 z m 3.31055,-8.34375 -1.06641,3.60352 q 0.63282,-0.82617 1.33594,-1.23047 0.70899,-0.4043 1.51758,-0.4043 1.06055,0 1.77539,0.71485 0.7207,0.71484 0.7207,1.78125 0,0.74414 -0.35156,1.5293 -0.3457,0.78515 -1.03711,1.60546 l 1.36524,0.45704 -3.49219,0.29882 q 0.39258,-0.38672 0.5918,-0.82617 0.19921,-0.44531 0.19921,-0.92578 0,-0.48633 -0.22851,-0.77344 -0.22266,-0.28711 -0.60938,-0.28711 -0.46289,0 -0.78515,0.39258 -0.31641,0.39258 -0.31641,0.97852 0,0.31054 0.082,0.59179 0.0879,0.27539 0.26367,0.50977 l -3.02343,0.35156 0.9082,-0.76758 -0.10547,-7.53515 -0.7793,-0.38672 4.125,-0.26367 z m 6.04688,4.17774 q 0.18164,0.22266 0.41015,0.32812 0.22852,0.10547 0.53906,0.10547 0.53321,0 0.90235,-0.32812 0.36914,-0.32813 0.36914,-0.80274 0,-0.1875 -0.0586,-0.33984 -0.0586,-0.15234 -0.18165,-0.26953 -0.71484,0.19922 -1.20703,0.52734 -0.49218,0.32227 -0.77343,0.7793 z m 5.44921,0.91406 q 0,0.48047 -0.12304,0.89649 -0.12305,0.41601 -0.36914,0.77929 -0.48633,0.72071 -1.26563,1.13672 -0.77344,0.41602 -1.64062,0.41602 -1.47657,0 -2.4375,-0.88477 -0.95508,-0.89062 -0.95508,-2.25 0,-1.4414 0.97266,-2.35547 0.97851,-0.91992 2.51953,-0.91992 1.45312,0 2.37304,0.89063 0.92578,0.89062 0.92578,2.29101 z m -45.48925,18.15671 -7.05469,-0.25195 1.2832,-0.72071 1.125,-5.20898 -2.61328,4.30664 -2.24414,-4.81055 0.89649,6.25196 1.88671,0.87304 -6.59765,-0.58593 1.00781,-0.57422 0.66797,-6.58008 -1.31836,-0.58594 5.53125,-0.67383 0.74414,3.20508 0.70898,-2.85351 5.36133,0.31054 -1.61718,0.5625 0.67382,6.44531 z m 3.12304,-4.69336 q -0.15234,0.17578 -0.22265,0.375 -0.0703,0.19922 -0.0703,0.46289 0,0.51563 0.33398,0.86719 0.33984,0.3457 0.83203,0.3457 0.17578,0 0.36328,-0.0703 0.1875,-0.0762 0.38086,-0.2168 -0.375,-0.6914 -0.78515,-1.13086 -0.4043,-0.44531 -0.83204,-0.63281 z m 4.10157,-1.22461 -0.86133,0.39258 0.17578,4.91016 0.67383,0.51562 -2.57813,0.32227 0.43946,-1.78711 q -0.53907,0.88476 -1.24805,1.33593 -0.70313,0.45118 -1.53516,0.45118 -0.99609,0 -1.68164,-0.81446 -0.67969,-0.82031 -0.67969,-2.02734 0,-1.54102 0.73243,-2.53125 0.73242,-0.99609 1.8457,-0.99609 0.84375,0 1.48242,0.44531 0.64453,0.43945 1.08399,1.31836 l -0.36914,-1.81055 z m 6.91992,6.20508 -0.64453,-1.30078 q -0.70313,0.65039 -1.39453,0.96094 -0.68555,0.30468 -1.44141,0.30468 -1.37695,0 -2.26758,-0.81445 -0.88476,-0.81445 -0.88476,-2.08008 0,-0.73828 0.26367,-1.40625 0.26367,-0.67383 0.74414,-1.14844 0.43945,-0.43945 0.99023,-0.66211 0.55664,-0.22851 1.20703,-0.22851 0.64454,0 1.22461,0.23437 0.58594,0.22852 1.16016,0.71485 l 0.24023,-1.03125 0.33985,2.58984 q -0.22266,-0.24609 -0.50391,-0.375 -0.27539,-0.1289 -0.5918,-0.1289 -0.43359,0 -0.7207,0.29296 -0.28711,0.29297 -0.28711,0.73829 0,0.43945 0.32227,0.75585 0.32812,0.31641 0.77344,0.31641 0.30468,0 0.58007,-0.15234 0.28125,-0.15821 0.60352,-0.50977 z m 3.31055,-8.34375 -1.06641,3.60351 q 0.63281,-0.82617 1.33594,-1.23046 0.70898,-0.4043 1.51757,-0.4043 1.06055,0 1.7754,0.71484 0.7207,0.71485 0.7207,1.78125 0,0.74414 -0.35156,1.5293 -0.34571,0.78516 -1.03711,1.60547 l 1.36523,0.45703 -3.49219,0.29883 q 0.39258,-0.38672 0.5918,-0.82617 0.19922,-0.44532 0.19922,-0.92579 0,-0.48632 -0.22852,-0.77343 -0.22265,-0.28711 -0.60937,-0.28711 -0.46289,0 -0.78516,0.39258 -0.3164,0.39257 -0.3164,0.97851 0,0.31055 0.082,0.5918 0.0879,0.27539 0.26367,0.50976 l -3.02344,0.35157 0.9082,-0.76758 -0.10546,-7.53516 -0.7793,-0.38672 4.125,-0.26367 z m 10.2246,8.10351 -6.07031,0.1875 1.30664,-0.52734 0.41016,-4.99219 -1.59961,-0.63281 5.84766,-0.2168 -1.875,0.66211 0.73242,5.13282 z m -0.65039,-7.53515 q 0,0.39844 -0.61523,0.66211 -0.61523,0.25781 -1.60547,0.25781 -0.99023,0 -1.61133,-0.25781 -0.61523,-0.26367 -0.61523,-0.66211 0,-0.39844 0.62109,-0.66211 0.6211,-0.26367 1.60547,-0.26367 0.99024,0 1.60547,0.26367 0.61523,0.26367 0.61523,0.66211 z m 7.55274,7.5 -3.27539,0.21094 q 0.32812,-0.36914 0.49219,-0.75586 0.16406,-0.39258 0.16406,-0.79102 0,-0.5332 -0.25196,-0.87891 -0.25195,-0.3457 -0.63281,-0.3457 -0.43945,0 -0.73242,0.36328 -0.28711,0.35742 -0.28711,0.90821 0,0.375 0.11719,0.67968 0.11719,0.29883 0.35156,0.52149 l -3.2168,0.375 0.73243,-0.76758 0.25195,-4.81641 -0.96094,-0.48047 3.0586,-0.33398 -0.70899,1.42969 q 0.73828,-0.70313 1.43555,-1.06055 0.69726,-0.35742 1.32422,-0.35742 0.97265,0 1.55273,0.64453 0.58594,0.63867 0.58594,1.71094 0,0.84375 -0.29883,1.6875 -0.29883,0.83789 -0.87891,1.63476 z m 1.96875,-3.9375 q 0.1875,0.15234 0.43945,0.24023 0.25195,0.082 0.51563,0.082 0.46289,0 0.75586,-0.26953 0.29296,-0.26953 0.29296,-0.6914 0,-0.20508 -0.0586,-0.36914 -0.0586,-0.16407 -0.18164,-0.31055 -0.62695,0.0937 -1.07227,0.42773 -0.43945,0.32813 -0.6914,0.89063 z m 5.83008,4.17773 -0.52735,-0.97265 q -0.77929,0.49218 -1.55859,0.73242 -0.7793,0.24023 -1.61133,0.24023 -1.62305,0 -2.60156,-0.80273 -0.97266,-0.8086 -0.97266,-2.13867 0,-0.70313 0.26367,-1.35352 0.26954,-0.65625 0.75586,-1.14258 0.46875,-0.46875 1.08399,-0.70898 0.62109,-0.24024 1.36523,-0.24024 1.42383,0 2.34961,0.61524 0.92578,0.61523 0.92578,1.54687 0,0.9375 -0.85547,1.57032 -0.84961,0.63281 -2.13281,0.63281 -0.3164,0 -0.5918,-0.0469 -0.27539,-0.0527 -0.52734,-0.15234 0.55078,0.375 1.07813,0.55664 0.5332,0.17578 1.0957,0.17578 0.68555,0 1.25976,-0.30469 0.57422,-0.30468 0.98438,-0.88476 z"
       id="text28"
       transform="scale(0.26458333)"
       aria-label="Gazpacho Machine" />
  </g>
</svg>
