<?xml version="1.0" encoding="UTF-8" standalone="no"?>
<!-- Created with Inkscape (http://www.inkscape.org/) -->

<svg
   width="15.459679mm"
   height="6.5338955mm"
   viewBox="0 0 15.459679 6.5338955"
   version="1.1"
   id="svg1"
   xmlns:inkscape="http://www.inkscape.org/namespaces/inkscape"
   xmlns:sodipodi="http://sodipodi.sourceforge.net/DTD/sodipodi-0.dtd"
   xmlns="http://www.w3.org/2000/svg"
   xmlns:svg="http://www.w3.org/2000/svg">
  <sodipodi:namedview
     id="namedview1"
     pagecolor="#ffffff"
     bordercolor="#000000"
     borderopacity="0.25"
     inkscape:showpageshadow="2"
     inkscape:pageopacity="0.0"
     inkscape:pagecheckerboard="0"
     inkscape:deskcolor="#d1d1d1"
     inkscape:document-units="mm"
     showguides="true">
    <sodipodi:guide
       position="17.089884,292.97266"
       orientation="0,-1"
       id="guide28"
       inkscape:locked="false" />
  </sodipodi:namedview>
  <defs
     id="defs1">
    <inkscape:path-effect
       effect="fillet_chamfer"
       id="path-effect27"
       is_visible="true"
       lpeversion="1"
       nodesatellites_param="F,1,0,1,0,0,0,1 @ F,1,0,1,0,0,0,1 @ F,1,0,1,0,0,0,1 @ F,1,0,1,0,0,0,1 @ F,1,0,1,0,0,0,1 @ F,1,0,1,0,0,0,1 @ F,1,0,1,0,0,0,1 @ F,1,0,1,0,0,0,1 @ F,1,0,1,0,0,0,1 @ F,1,0,1,0,0,0,1 @ F,1,0,1,0,0,0,1 @ F,1,0,1,0,0,0,1 @ F,1,0,1,0,0,0,1 | F,1,0,1,0,0,0,1 @ F,1,0,1,0,0,0,1 @ F,1,0,1,0,0,0,1 @ F,1,0,1,0,0,0,1 @ F,1,0,1,0,0,0,1 @ F,1,0,1,0,0,0,1 @ F,1,0,1,0,0,0,1 @ F,1,0,1,0,0,0,1 @ F,1,0,1,0,0,0,1 @ F,1,0,1,0,0,0,1 @ F,1,0,1,0,0,0,1 @ F,1,0,1,0,0,0,1 @ F,1,0,1,0,0,0,1 @ F,1,0,1,0,0,0,1 @ F,1,0,1,0,0,0,1 @ F,1,0,1,0,0,0,1 @ F,1,0,1,0,0,0,1 @ F,1,0,1,0,0,0,1 @ F,1,0,1,0,0,0,1 @ F,1,0,1,0,0,0,1 @ F,1,0,1,0,0,0,1 | F,1,0,1,0,0,0,1 @ F,1,0,1,0,0,0,1 @ F,1,0,1,0,0,0,1 @ F,1,0,1,0,0,0,1 @ F,1,0,1,0,0,0,1 @ F,1,0,1,0,0,0,1 @ F,1,0,1,0,0,0,1 @ F,1,0,1,0,0,0,1 @ F,1,0,1,0,0,0,1 @ F,1,0,1,0,0,0,1 @ F,1,0,1,0,0,0,1 @ F,1,0,1,0,0,0,1 @ F,1,0,1,0,0,0,1 @ F,1,0,1,0,0,0,1 @ F,1,0,1,0,0,0,1 @ F,1,0,1,0,0,0,1 @ F,1,0,1,0,0,0,1 @ F,1,0,1,0,0,0,1 @ F,1,0,1,0,0,0,1 @ F,1,0,1,0,0,0,1 | F,1,0,1,0,0,0,1 @ F,1,0,1,0,0,0,1 @ F,1,0,1,0,0,0,1 @ F,1,0,1,0,0,0,1 @ F,1,0,1,0,0,0,1 @ F,1,0,1,0,0,0,1 @ F,1,0,1,0,0,0,1 @ F,1,0,1,0,0,0,1 @ F,1,0,1,0,0,0,1 @ F,1,0,1,0,0,0,1 @ F,1,0,1,0,0,0,1 @ F,1,0,1,0,0,0,1 @ F,1,0,1,0,0,0,1 @ F,1,0,1,0,0,0,1 | F,1,0,1,0,0,0,1 @ F,1,0,1,0,0,0,1 @ F,1,0,1,0,0,0,1 @ F,1,0,1,0,0,0,1 @ F,1,0,1,0,0,0,1 @ F,1,0,1,0,0,0,1 @ F,1,0,1,0,0,0,1 @ F,1,0,1,0,0,0,1 @ F,1,0,1,0,0,0,1 @ F,1,0,1,0,0,0,1 @ F,1,0,1,0,0,0,1 @ F,1,0,1,0,0,0,1 @ F,1,0,1,0,0,0,1 @ F,1,0,1,0,0,0,1 @ F,1,0,1,0,0,0,1 | F,1,0,1,0,0,0,1 @ F,1,0,1,0,0,0,1 @ F,1,0,1,0,0,0,1 @ F,1,0,1,0,0,0,1 @ F,1,0,1,0,0,0,1 @ F,1,0,1,0,0,0,1 @ F,1,0,1,0,0,0,1 @ F,1,0,1,0,0,0,1 @ F,1,0,1,0,0,0,1 @ F,1,0,1,0,0,0,1 @ F,1,0,1,0,0,0,1 @ F,1,0,1,0,0,0,1 @ F,1,0,1,0,0,0,1 @ F,1,0,1,0,0,0,1 @ F,1,0,1,0,0,0,1 @ F,1,0,1,0,0,0,1 @ F,1,0,1,0,0,0,1 @ F,1,0,1,0,0,0,1 | F,1,0,1,0,0,0,1 @ F,1,0,1,0,0,0,1 @ F,1,0,1,0,0,0,1 @ F,1,0,1,0,0,0,1 @ F,1,0,1,0,0,0,1 @ F,1,0,1,0,0,0,1 @ F,1,0,1,0,0,0,1 @ F,1,0,1,0,0,0,1 | F,1,0,1,0,0,0,1 @ F,1,0,1,0,0,0,1 @ F,1,0,1,0,0,0,1 @ F,1,0,1,0,0,0,1 @ F,1,0,1,0,0,0,1 @ F,1,0,1,0,0,0,1 @ F,1,0,1,0,0,0,1 @ F,1,0,1,0,0,0,1 @ F,1,0,1,0,0,0,1 @ F,1,0,1,0,0,0,1 | F,1,0,1,0,0,0,1 @ F,1,0,1,0,0,0,1 @ F,1,0,1,0,0,0,1 @ F,1,0,1,0,0,0,1 @ F,1,0,1,0,0,0,1 @ F,1,0,1,0,0,0,1 @ F,1,0,1,0,0,0,1 @ F,1,0,1,0,0,0,1 @ F,1,0,1,0,0,0,1 @ F,1,0,1,0,0,0,1 @ F,1,0,1,0,0,0,1 @ F,1,0,1,0,0,0,1 @ F,1,0,1,0,0,0,1 @ F,1,0,1,0,0,0,1 @ F,1,0,1,0,0,0,1 | F,1,0,1,0,0,0,1 @ F,1,0,1,0,0,0,1 @ F,1,0,1,0,0,0,1 @ F,1,0,1,0,0,0,1 @ F,1,0,1,0,0,0,1 @ F,1,0,1,0,0,0,1 @ F,1,0,1,0,0,0,1 @ F,1,0,1,0,0,0,1 | F,1,0,1,0,0,0,1 @ F,1,0,1,0,0,0,1 @ F,1,0,1,0,0,0,1 @ F,1,0,1,0,0,0,1 @ F,1,0,1,0,0,0,1 @ F,1,0,1,0,0,0,1 @ F,1,0,1,0,0,0,1 @ F,1,0,1,0,0,0,1 @ F,1,0,1,0,0,0,1 @ F,1,0,1,0,0,0,1 | F,1,0,1,0,0,0,1 @ F,1,0,1,0,0,0,1 @ F,1,0,1,0,0,0,1 @ F,1,0,1,0,0,0,1 @ F,1,0,1,0,0,0,1 @ F,1,0,1,0,0,0,1 @ F,1,0,1,0,0,0,1 @ F,1,0,1,0,0,0,1"
       radius="25"
       unit="px"
       method="auto"
       mode="F"
       chamfer_steps="1"
       flexible="true"
       use_knot_distance="true"
       apply_no_radius="true"
       apply_with_radius="true"
       only_selected="false"
       hide_knots="false" />
    <inkscape:path-effect
       effect="bend_path"
       id="path-effect26"
       is_visible="true"
       lpeversion="1"
       bendpath="m 233.61667,368.58724 c 9.99856,-12.44191 33.90701,-16.40377 51.53307,-7.85289"
       prop_scale="1"
       scale_y_rel="false"
       vertical="false"
       hide_knot="false"
       bendpath-nodetypes="cc" />
    <inkscape:path-effect
       effect="offset"
       id="path-effect24"
       is_visible="true"
       lpeversion="1.2"
       linejoin_type="miter"
       unit="mm"
       offset="0.10141017"
       miter_limit="4"
       attempt_force_join="false"
       update_on_knot_move="true" />
    <inkscape:path-effect
       effect="bend_path"
       id="path-effect22"
       is_visible="true"
       lpeversion="1"
       bendpath="m 233.61667,368.58724 c 9.99856,-12.44191 33.90701,-16.40377 51.53307,-7.85289"
       prop_scale="1"
       scale_y_rel="false"
       vertical="false"
       hide_knot="false"
       bendpath-nodetypes="cc" />
    <inkscape:path-effect
       effect="offset"
       id="path-effect20"
       is_visible="true"
       lpeversion="1.2"
       linejoin_type="miter"
       unit="mm"
       offset="0.1"
       miter_limit="4"
       attempt_force_join="false"
       update_on_knot_move="true" />
    <inkscape:path-effect
       effect="bend_path"
       id="path-effect16"
       is_visible="true"
       lpeversion="1"
       bendpath="m 233.61667,368.58724 c 9.99856,-12.44191 33.90701,-16.40377 51.53307,-7.85289"
       prop_scale="1"
       scale_y_rel="false"
       vertical="false"
       hide_knot="false"
       bendpath-nodetypes="cc" />
    <inkscape:path-effect
       effect="offset"
       id="path-effect15"
       is_visible="true"
       lpeversion="1.2"
       linejoin_type="miter"
       unit="mm"
       offset="0.1"
       miter_limit="4"
       attempt_force_join="false"
       update_on_knot_move="true" />
  </defs>
  <g
     inkscape:label="Capa 1"
     inkscape:groupmode="layer"
     id="layer1"
     transform="translate(-60.177736,-94.802251)">
    <path
       style="fill:#ffae5a;fill-opacity:1;stroke:none;stroke-width:0.21266;stroke-linecap:round;stroke-linejoin:round;stroke-dasharray:none;stroke-opacity:1;paint-order:stroke fill markers"
       d="m 74.666367,98.653722 c -0.0023,0.551969 -0.442602,1.436058 -0.205774,1.613288 0.177861,0.13324 -0.03899,0.49869 -0.208722,0.41278 -0.265481,-0.13425 -0.184505,-0.22275 -0.140574,-0.38302 0.05716,-0.20901 0.732388,-0.857436 -0.895889,-1.513552"
       id="path17"
       sodipodi:nodetypes="csssc" />
    <path
       id="path16"
       style="opacity:1;fill:#ffae5a;fill-opacity:1;stroke:none;stroke-width:0.359954;stroke-linecap:round;stroke-linejoin:round;stroke-dasharray:none;stroke-opacity:1;paint-order:stroke fill markers"
       d="m 63.176853,98.550131 -2.501523,0.162926 c 0,0 0.807433,0.202549 0.99086,0.488016 0.128289,0.199647 0.256925,1.412207 0.0172,1.425057 -0.30061,0.0166 -0.436188,0.3295 -0.205465,0.59029 0.316863,0.35817 0.818972,-0.17518 0.787254,-0.45157 -0.03443,-0.2995 -0.707408,-1.20956 0.73676,-1.894684 0.05041,-0.122051 0.109518,-0.228248 0.174907,-0.320035 z" />
    <path
       style="opacity:1;fill:#ffae5a;fill-opacity:1;stroke:none;stroke-width:0.387282;stroke-linecap:round;stroke-linejoin:round;stroke-dasharray:none;stroke-opacity:1;paint-order:stroke fill markers"
       d="m 71.870276,98.040389 c -2.460913,-0.293402 -1.170557,1.478926 -1.73481,2.234401 -0.403032,0.53962 -0.730879,-0.0975 -0.528307,-0.352486 0.346118,-0.435619 1.526225,-1.660691 -1.192427,-3.404466"
       id="path18"
       sodipodi:nodetypes="cssc" />
    <path
       d="m 272.61639,350.53349 -1.37811,9.54564 c 0.56542,0.0809 1.12882,0.17235 1.68973,0.27446 l 0.68116,-3.71453 c 0.0877,-0.47845 0.30112,-0.81953 0.623,-1.04108 0.31785,-0.22132 0.68332,-0.28936 1.06129,-0.20849 0.72954,0.15607 1.01238,0.63285 0.75811,1.70342 l -0.88547,3.72823 c 0.55342,0.1308 1.10373,0.27238 1.65046,0.42482 l 1.09616,-3.91962 c 0.48004,-1.7165 -0.10324,-2.98275 -1.92428,-3.3873 -0.70557,-0.15675 -1.35141,-0.0965 -1.91331,0.159 l 0.59135,-3.22477 c -0.68152,-0.12632 -1.36504,-0.23955 -2.05009,-0.33978 z m -39.30775,10.04325 c -1.33924,1.14038 -2.08619,2.54775 -2.17018,4.00203 -0.0837,1.45 0.51888,2.58544 1.60662,3.45153 1.05846,0.84277 2.20406,1.20042 3.36099,1.17387 1.16778,-0.0299 2.14058,-0.43306 3.04966,-1.21723 0.77326,-0.66702 1.36419,-1.4277 1.80151,-2.35314 0.0314,-0.0653 0.0632,-0.13052 0.0952,-0.19575 l -2.49165,-3.64403 c -1.114,0.76322 -2.18416,1.59652 -3.19478,2.50225 l 1.09737,1.22688 c 0.49022,-0.4385 0.99641,-0.85967 1.51644,-1.26383 l 1.06428,1.36954 c -0.19968,0.3638 -0.48136,0.7053 -0.87064,1.03883 -0.65561,0.56172 -1.29786,0.81247 -2.00777,0.79506 -0.7031,-0.0195 -1.44797,-0.31954 -2.16639,-0.98988 -0.69297,-0.64659 -1.0257,-1.38363 -0.9774,-2.237 0.0473,-0.83625 0.465,-1.64323 1.24562,-2.31233 0.81155,-0.69562 1.65471,-1.08703 2.471,-1.20351 0.25899,-0.0374 0.51722,-0.0713 0.77466,-0.10171 l -1.14762,-1.65784 c -0.094,0.0233 -0.18797,0.0471 -0.28203,0.0714 -0.88967,0.22905 -1.83593,0.74534 -2.77492,1.54489 z m 7.92927,-2.44158 c -0.86966,0.4553 -1.53844,1.08176 -1.96868,1.84067 -0.0384,0.0676 -0.0766,0.13518 -0.11452,0.20287 l 1.06761,1.70267 c 0.0998,-0.26973 0.2038,-0.53937 0.31182,-0.80874 0.26772,-0.67026 0.72863,-1.17746 1.35388,-1.50802 0.29962,-0.1584 0.56062,-0.19762 0.79419,-0.0887 0.14816,0.0691 0.2854,0.19764 0.41676,0.39371 -0.0541,0.0362 -0.10815,0.0725 -0.16208,0.10899 -0.39255,0.2648 -0.77981,0.53697 -1.16102,0.81633 -1.34107,0.98178 -1.62805,2.14731 -0.89677,3.26565 0.33665,0.51483 0.79683,0.84155 1.35696,0.96052 0.57048,0.11775 1.11815,-0.008 1.68485,-0.325 0.41419,-0.23154 0.7291,-0.53105 0.95017,-0.89978 0.0398,-0.0658 0.0765,-0.13387 0.11024,-0.20408 l 0.15018,0.30046 c 0.49952,-0.25082 1.00598,-0.48956 1.51872,-0.71653 l -1.73025,-3.91307 c -0.59189,-1.3386 -1.6413,-1.88121 -3.05446,-1.39921 0,0 0,0 0,0 -0.20335,0.0687 -0.41303,0.15895 -0.6276,0.27129 z m 13.56639,-4.56578 c -0.76211,0.13604 -1.37248,0.46443 -1.812,0.95111 l -0.0939,-0.42962 c -0.64187,0.14027 -1.28181,0.29325 -1.91914,0.45926 l 2.39552,9.21673 c 0.51517,-0.13323 1.03457,-0.25687 1.55755,-0.37125 l -0.6553,-2.99784 c 0.45874,0.2019 0.9564,0.25433 1.50176,0.15257 0.48098,-0.0897 0.89797,-0.25044 1.25631,-0.49129 0.34148,-0.22766 0.62952,-0.5282 0.86573,-0.90772 0.46845,-0.758 0.63951,-1.67665 0.51306,-2.7388 -0.11438,-0.96083 -0.46007,-1.73455 -1.10221,-2.27342 -0.37647,-0.31827 -0.81023,-0.51534 -1.2967,-0.59388 0,0 0,0 0,0 -0.37332,-0.0613 -0.77812,-0.053 -1.21067,0.0242 z m 7.01947,-0.80465 c -0.95537,0.0479 -1.80156,0.32185 -2.50127,0.80981 -0.0625,0.0434 -0.12477,0.0869 -0.18693,0.13053 l 0.19972,1.99862 c 0.20744,-0.19702 0.4173,-0.39287 0.62955,-0.58747 0.52703,-0.48453 1.14943,-0.74335 1.84561,-0.77931 0.54683,-0.0283 0.86573,0.18457 0.96229,0.78539 -0.52918,0.0859 -1.05598,0.17976 -1.58014,0.28145 -1.61029,0.31161 -2.39663,1.21175 -2.24751,2.54171 0.0685,0.61126 0.33531,1.10857 0.80016,1.46359 0.47351,0.35734 1.04413,0.48299 1.71503,0.44019 0.57798,-0.0369 1.06721,-0.22147 1.47199,-0.54952 l 0.0113,0.33643 c 0.57405,-0.0191 1.14834,-0.0281 1.7224,-0.0269 l 0.01,-4.29005 c 0.004,-1.67715 -0.96507,-2.64901 -2.85205,-2.55443 z m 7.59971,0.15285 c -1.18568,-0.10814 -2.19466,0.17651 -2.94629,0.83736 -0.75402,0.65859 -1.09939,1.54451 -1.11629,2.61554 -0.0153,0.9722 0.27796,1.79056 0.86849,2.45478 0.59546,0.66012 1.36496,1.01096 2.30439,1.08954 0.68655,0.0574 1.30761,-0.0277 1.87648,-0.27927 0.0656,-0.0293 0.13141,-0.0585 0.1973,-0.0875 l 0.24109,-1.87055 c -0.23003,0.12414 -0.45828,0.24996 -0.68473,0.37741 -0.44648,0.25196 -0.88889,0.35007 -1.32937,0.31145 -0.531,-0.0466 -0.93685,-0.2508 -1.21007,-0.57687 -0.28048,-0.33836 -0.43008,-0.8047 -0.39678,-1.43752 0.0336,-0.6381 0.24677,-1.11548 0.61523,-1.44582 0.36703,-0.32869 0.84517,-0.48009 1.40051,-0.43009 0.46686,0.042 0.90832,0.21856 1.29806,0.53494 0.20195,0.1639 0.40194,0.32899 0.59994,0.49521 l 0.24957,-1.93251 c -0.0757,-0.0447 -0.15159,-0.0892 -0.22765,-0.13352 -0.49587,-0.28865 -1.08192,-0.46259 -1.73988,-0.52261 z m 13.70706,3.17662 c -1.10306,-0.42635 -2.13425,-0.44497 -3.01477,-0.0429 -0.8887,0.40576 -1.4432,1.1644 -1.75041,2.20279 -0.28508,0.96357 -0.22938,1.84724 0.15858,2.6512 0.3935,0.80072 1.04508,1.34879 1.93978,1.69247 0.91618,0.35194 1.78298,0.38015 2.62506,0.0376 0.84481,-0.34349 1.49749,-0.97882 1.94792,-1.91328 0.45399,-0.94184 0.56318,-1.85054 0.22576,-2.70289 -0.33647,-0.85973 -1.07315,-1.51566 -2.13192,-1.9249 z m -38.56473,0.62573 0.61426,1.45252 c 0.97895,-0.41397 1.9721,-0.79064 2.97641,-1.13145 -0.65348,1.76282 -1.18392,3.53209 -1.57931,5.29346 l 0.31824,0.73425 c 1.70268,-0.73844 3.4729,-1.34864 5.2865,-1.84204 l -0.41565,-1.52316 c -1.04364,0.28435 -2.07485,0.60657 -3.08949,0.96862 0.53237,-1.74745 1.19252,-3.49496 1.9684,-5.22809 l -0.20412,-0.75044 c -1.99269,0.54337 -3.95795,1.21557 -5.87524,2.02633 z m 10.2522,-1.56029 c 0.4539,-0.0837 0.83275,0.006 1.12268,0.23934 0.19803,0.15915 0.35835,0.38417 0.47202,0.68595 0,0 0,0 0,0 0,0 0,0 0,0 0.0621,0.16495 0.11023,0.35258 0.14327,0.56497 0.0382,0.24524 0.0544,0.47011 0.051,0.67546 0,0 0,0 0,0 0,0 0,0 0,0 -0.007,0.40758 -0.0904,0.74006 -0.23544,1.00795 -0.2008,0.37601 -0.52509,0.60928 -0.99136,0.69721 -0.39127,0.0738 -0.74792,0.004 -1.04211,-0.19295 -0.31193,-0.21421 -0.51343,-0.50936 -0.59989,-0.90489 l -0.17906,-0.81916 c -0.10769,-0.49269 -0.0395,-0.91626 0.19064,-1.27989 0.21625,-0.34553 0.57669,-0.58337 1.06826,-0.67399 z m 27.67458,2.36463 c 0.54023,0.20794 0.86607,0.53123 0.9989,0.90666 0.14628,0.4059 0.10817,0.91341 -0.16549,1.5504 -0.26939,0.62705 -0.60752,1.00262 -0.97763,1.18731 -0.34094,0.17261 -0.7638,0.18527 -1.25787,-0.005 -0.47914,-0.18483 -0.79949,-0.48494 -0.96522,-0.87397 -0.1714,-0.40238 -0.18412,-0.89848 0.0227,-1.50481 0.21716,-0.63665 0.5394,-1.03861 0.94642,-1.24612 0.38996,-0.20108 0.86688,-0.21865 1.39819,-0.0141 z m -38.6935,3.70271 0.0734,0.14673 c 0.13705,0.2742 0.18977,0.53635 0.17075,0.78849 -0.007,0.0975 -0.0253,0.19368 -0.0533,0.28878 -0.0949,0.32268 -0.30765,0.58567 -0.63345,0.76456 -0.24217,0.13296 -0.44767,0.16581 -0.60319,0.136 -0.15476,-0.0329 -0.29385,-0.13134 -0.38482,-0.28886 -0.16175,-0.28009 -0.15315,-0.45194 -0.10199,-0.5529 0.0888,-0.18021 0.28628,-0.40492 0.64259,-0.66243 0.23732,-0.17082 0.47709,-0.33896 0.71909,-0.50436 0.0569,-0.0388 0.11384,-0.0775 0.17094,-0.11601 z m 19.04427,-4.57572 0.006,0.1643 c 0.0143,0.42564 -0.10984,0.76204 -0.34756,1.0294 -0.22486,0.25312 -0.5347,0.40155 -0.9127,0.42406 -0.28104,0.0167 -0.48462,-0.0422 -0.61417,-0.1362 -0.1276,-0.0965 -0.21137,-0.24539 -0.22513,-0.4268 -0.0245,-0.32237 0.0587,-0.47375 0.14909,-0.54265 0.15941,-0.12443 0.43583,-0.24183 0.87044,-0.3237 0.35698,-0.0665 0.71519,-0.12936 1.07452,-0.18841 z"
       id="text15"
       style="font-size:12px;font-family:System-ui;-inkscape-font-specification:System-ui;white-space:pre;fill:none;stroke:#ffae5a;stroke-width:3.77953;stroke-linecap:round;stroke-linejoin:round;stroke-dasharray:none;stroke-opacity:1;paint-order:stroke fill markers"
       transform="matrix(0.26182498,0.03810536,-0.03810536,0.26182498,14.072769,-6.8643304)"
       aria-label="Gazpacho"
       inkscape:path-effect="#path-effect15;#path-effect16"
       inkscape:original-d="m 247.59766,364.52585 q -1.26563,0.71484 -2.8125,0.71484 -1.79883,0 -2.91211,-1.16015 -1.10743,-1.16016 -1.10743,-3.07032 0,-1.95117 1.23047,-3.19921 1.23633,-1.25391 3.12891,-1.25391 1.37109,0 2.30273,0.44531 v 1.08985 q -1.01953,-0.64454 -2.41406,-0.64454 -1.41211,0 -2.31445,0.97266 -0.90235,0.97266 -0.90235,2.51953 0,1.59375 0.8379,2.50781 0.83789,0.90821 2.27343,0.90821 0.98438,0 1.70508,-0.39258 v -2.35547 h -1.83984 v -0.89062 h 2.82422 z m 6.11718,0.57422 h -0.96093 v -0.9375 h -0.0234 q -0.62695,1.07812 -1.8457,1.07812 -0.89649,0 -1.40625,-0.47461 -0.50391,-0.47461 -0.50391,-1.25976 0,-1.68164 1.98047,-1.95703 l 1.79883,-0.25196 q 0,-1.52929 -1.23633,-1.52929 -1.08399,0 -1.95703,0.73828 v -0.98438 q 0.88476,-0.5625 2.03906,-0.5625 2.11523,0 2.11523,2.23828 z m -0.96093,-3.03516 -1.44727,0.19922 q -0.66797,0.0937 -1.00781,0.33399 -0.33985,0.23437 -0.33985,0.83789 0,0.43945 0.31055,0.7207 0.31641,0.27539 0.83789,0.27539 0.71485,0 1.17774,-0.49805 0.46875,-0.5039 0.46875,-1.27148 z m 6.95507,-2.68945 -3.55078,4.9043 h 3.51563 v 0.82031 h -4.92774 v -0.29883 l 3.55078,-4.88086 h -3.21679 v -0.82031 h 4.6289 z m 2.22657,4.85742 h -0.0234 v 3.62695 h -0.96094 v -8.75976 h 0.96094 v 1.05469 h 0.0234 q 0.70898,-1.19532 2.07422,-1.19532 1.16015,0 1.81054,0.8086 0.65039,0.80273 0.65039,2.15625 0,1.50586 -0.73242,2.41406 -0.73242,0.90234 -2.00391,0.90234 -1.16601,0 -1.79882,-1.00781 z m -0.0234,-2.41992 v 0.83789 q 0,0.74414 0.48047,1.26562 0.48633,0.51563 1.23047,0.51563 0.87304,0 1.36523,-0.66797 0.49805,-0.66797 0.49805,-1.85742 0,-1.00195 -0.46289,-1.57031 -0.46289,-0.56836 -1.25391,-0.56836 -0.83789,0 -1.34766,0.58593 -0.50976,0.58008 -0.50976,1.45899 z m 10.38867,3.28711 h -0.96094 v -0.9375 h -0.0234 q -0.62696,1.07812 -1.84571,1.07812 -0.89648,0 -1.40625,-0.47461 -0.5039,-0.47461 -0.5039,-1.25976 0,-1.68164 1.98047,-1.95703 l 1.79882,-0.25196 q 0,-1.52929 -1.23632,-1.52929 -1.08399,0 -1.95704,0.73828 v -0.98438 q 0.88477,-0.5625 2.03907,-0.5625 2.11523,0 2.11523,2.23828 z m -0.96094,-3.03516 -1.44726,0.19922 q -0.66797,0.0937 -1.00781,0.33399 -0.33985,0.23437 -0.33985,0.83789 0,0.43945 0.31055,0.7207 0.3164,0.27539 0.83789,0.27539 0.71484,0 1.17773,-0.49805 0.46875,-0.5039 0.46875,-1.27148 z m 6.86133,2.75977 q -0.6914,0.41601 -1.64062,0.41601 -1.28321,0 -2.07422,-0.83203 -0.78516,-0.83789 -0.78516,-2.16797 0,-1.48242 0.84961,-2.3789 0.84961,-0.90235 2.26758,-0.90235 0.79101,0 1.39453,0.29297 v 0.98438 q -0.66797,-0.46875 -1.42969,-0.46875 -0.91992,0 -1.51172,0.66211 -0.58593,0.65625 -0.58593,1.72851 0,1.05469 0.55078,1.66406 0.55664,0.60938 1.48828,0.60938 0.78516,0 1.47656,-0.52148 z m 6.4336,0.27539 h -0.96094 v -3.45703 q 0,-1.875 -1.39453,-1.875 -0.70313,0 -1.1836,0.54492 -0.48047,0.53906 -0.48047,1.38867 v 3.39844 h -0.96093 v -8.88281 h 0.96093 v 3.8789 h 0.0234 q 0.69141,-1.13672 1.96875,-1.13672 2.02735,0 2.02735,2.44336 z m 4.31835,0.14062 q -1.33007,0 -2.12695,-0.83789 -0.79101,-0.84375 -0.79101,-2.23242 0,-1.51172 0.82617,-2.36133 0.82617,-0.84961 2.23242,-0.84961 1.3418,0 2.0918,0.82618 0.75586,0.82617 0.75586,2.29101 0,1.43555 -0.81446,2.30274 -0.80859,0.86132 -2.17383,0.86132 z m 0.0703,-5.47265 q -0.92578,0 -1.46485,0.63281 -0.53906,0.62695 -0.53906,1.73437 0,1.06641 0.54492,1.68165 0.54492,0.61523 1.45899,0.61523 0.93164,0 1.42968,-0.60352 0.50391,-0.60351 0.50391,-1.71679 0,-1.125 -0.50391,-1.73438 -0.49804,-0.60937 -1.42968,-0.60937 z"
       inkscape:export-filename="logo.svg"
       inkscape:export-xdpi="96.640373"
       inkscape:export-ydpi="96.640373" />
    <path
       style="fill:#ffae5a;fill-opacity:1;stroke:none;stroke-width:0.272727;stroke-linecap:round;stroke-linejoin:round;stroke-dasharray:none;stroke-opacity:1;paint-order:stroke fill markers"
       d="m 65.407711,97.717168 c 0.03925,0.734549 -0.434714,1.961137 -0.129954,2.16979 0.228911,0.156722 -0.0099,0.667872 -0.225198,0.573072 -0.336719,-0.14824 -0.243901,-0.27511 -0.202103,-0.493471 0.05444,-0.284444 0.835231,-1.224576 -1.21718,-1.910919"
       id="path16-2"
       sodipodi:nodetypes="csssc" />
    <path
       d="m 272.61639,350.53349 -1.37811,9.54564 c 0.56542,0.0809 1.12882,0.17235 1.68973,0.27446 l 0.68116,-3.71453 c 0.0877,-0.47845 0.30112,-0.81953 0.623,-1.04108 0.31785,-0.22132 0.68332,-0.28936 1.06129,-0.20849 0.72954,0.15607 1.01238,0.63285 0.75811,1.70342 l -0.88547,3.72823 c 0.55342,0.1308 1.10373,0.27238 1.65046,0.42482 l 1.09616,-3.91962 c 0.48004,-1.7165 -0.10324,-2.98275 -1.92428,-3.3873 -0.70557,-0.15675 -1.35141,-0.0965 -1.91331,0.159 l 0.59135,-3.22477 c -0.68152,-0.12632 -1.36504,-0.23955 -2.05009,-0.33978 z m -39.30775,10.04325 c -1.33924,1.14038 -2.08619,2.54775 -2.17018,4.00203 -0.0837,1.45 0.51888,2.58544 1.60662,3.45153 1.05846,0.84277 2.20406,1.20042 3.36099,1.17387 1.16778,-0.0299 2.14058,-0.43306 3.04966,-1.21723 0.77326,-0.66702 1.36419,-1.4277 1.80151,-2.35314 0.0314,-0.0653 0.0632,-0.13052 0.0952,-0.19575 l -2.49165,-3.64403 c -1.114,0.76322 -2.18416,1.59652 -3.19478,2.50225 l 1.09737,1.22688 c 0.49022,-0.4385 0.99641,-0.85967 1.51644,-1.26383 l 1.06428,1.36954 c -0.19968,0.3638 -0.48136,0.7053 -0.87064,1.03883 -0.65561,0.56172 -1.29786,0.81247 -2.00777,0.79506 -0.7031,-0.0195 -1.44797,-0.31954 -2.16639,-0.98988 -0.69297,-0.64659 -1.0257,-1.38363 -0.9774,-2.237 0.0473,-0.83625 0.465,-1.64323 1.24562,-2.31233 0.81155,-0.69562 1.65471,-1.08703 2.471,-1.20351 0.25899,-0.0374 0.51722,-0.0713 0.77466,-0.10171 l -1.14762,-1.65784 c -0.094,0.0233 -0.18797,0.0471 -0.28203,0.0714 -0.88967,0.22905 -1.83593,0.74534 -2.77492,1.54489 z m 7.92927,-2.44158 c -0.86966,0.4553 -1.53844,1.08176 -1.96868,1.84067 -0.0384,0.0676 -0.0766,0.13518 -0.11452,0.20287 l 1.06761,1.70267 c 0.0998,-0.26973 0.2038,-0.53937 0.31182,-0.80874 0.26772,-0.67026 0.72863,-1.17746 1.35388,-1.50802 0.29962,-0.1584 0.56062,-0.19762 0.79419,-0.0887 0.14816,0.0691 0.2854,0.19764 0.41676,0.39371 -0.0541,0.0362 -0.10815,0.0725 -0.16208,0.10899 -0.39255,0.2648 -0.77981,0.53697 -1.16102,0.81633 -1.34107,0.98178 -1.62805,2.14731 -0.89677,3.26565 0.33665,0.51483 0.79683,0.84155 1.35696,0.96052 0.57048,0.11775 1.11815,-0.008 1.68485,-0.325 0.41419,-0.23154 0.7291,-0.53105 0.95017,-0.89978 0.0398,-0.0658 0.0765,-0.13387 0.11024,-0.20408 l 0.15018,0.30046 c 0.49952,-0.25082 1.00598,-0.48956 1.51872,-0.71653 l -1.73025,-3.91307 c -0.59189,-1.3386 -1.6413,-1.88121 -3.05446,-1.39921 l 0,0 c -0.20335,0.0687 -0.41303,0.15895 -0.6276,0.27129 z m 13.56639,-4.56578 c -0.76211,0.13604 -1.37248,0.46443 -1.812,0.95111 l -0.0939,-0.42962 c -0.64187,0.14027 -1.28181,0.29325 -1.91914,0.45926 l 2.39552,9.21673 c 0.51517,-0.13323 1.03457,-0.25687 1.55755,-0.37125 l -0.6553,-2.99784 c 0.45874,0.2019 0.9564,0.25433 1.50176,0.15257 0.48098,-0.0897 0.89797,-0.25044 1.25631,-0.49129 0.34148,-0.22766 0.62952,-0.5282 0.86573,-0.90772 0.46845,-0.758 0.63951,-1.67665 0.51306,-2.7388 -0.11438,-0.96083 -0.46007,-1.73455 -1.10221,-2.27342 -0.37647,-0.31827 -0.81023,-0.51534 -1.2967,-0.59388 l 0,0 c -0.37332,-0.0613 -0.77812,-0.053 -1.21067,0.0242 z m 7.01947,-0.80465 c -0.95537,0.0479 -1.80156,0.32185 -2.50127,0.80981 -0.0625,0.0434 -0.12477,0.0869 -0.18693,0.13053 l 0.19972,1.99862 c 0.20744,-0.19702 0.4173,-0.39287 0.62955,-0.58747 0.52703,-0.48453 1.14943,-0.74335 1.84561,-0.77931 0.54683,-0.0283 0.86573,0.18457 0.96229,0.78539 -0.52918,0.0859 -1.05598,0.17976 -1.58014,0.28145 -1.61029,0.31161 -2.39663,1.21175 -2.24751,2.54171 0.0685,0.61126 0.33531,1.10857 0.80016,1.46359 0.47351,0.35734 1.04413,0.48299 1.71503,0.44019 0.57798,-0.0369 1.06721,-0.22147 1.47199,-0.54952 l 0.0113,0.33643 c 0.57405,-0.0191 1.14834,-0.0281 1.7224,-0.0269 l 0.01,-4.29005 c 0.004,-1.67715 -0.96507,-2.64901 -2.85205,-2.55443 z m 7.59971,0.15285 c -1.18568,-0.10814 -2.19466,0.17651 -2.94629,0.83736 -0.75402,0.65859 -1.09939,1.54451 -1.11629,2.61554 -0.0153,0.9722 0.27796,1.79056 0.86849,2.45478 0.59546,0.66012 1.36496,1.01096 2.30439,1.08954 0.68655,0.0574 1.30761,-0.0277 1.87648,-0.27927 0.0656,-0.0293 0.13141,-0.0585 0.1973,-0.0875 l 0.24109,-1.87055 c -0.23003,0.12414 -0.45828,0.24996 -0.68473,0.37741 -0.44648,0.25196 -0.88889,0.35007 -1.32937,0.31145 -0.531,-0.0466 -0.93685,-0.2508 -1.21007,-0.57687 -0.28048,-0.33836 -0.43008,-0.8047 -0.39678,-1.43752 0.0336,-0.6381 0.24677,-1.11548 0.61523,-1.44582 0.36703,-0.32869 0.84517,-0.48009 1.40051,-0.43009 0.46686,0.042 0.90832,0.21856 1.29806,0.53494 0.20195,0.1639 0.40194,0.32899 0.59994,0.49521 l 0.24957,-1.93251 c -0.0757,-0.0447 -0.15159,-0.0892 -0.22765,-0.13352 -0.49587,-0.28865 -1.08192,-0.46259 -1.73988,-0.52261 z m 13.70706,3.17662 c -1.10306,-0.42635 -2.13425,-0.44497 -3.01477,-0.0429 -0.8887,0.40576 -1.4432,1.1644 -1.75041,2.20279 -0.28508,0.96357 -0.22938,1.84724 0.15858,2.6512 0.3935,0.80072 1.04508,1.34879 1.93978,1.69247 0.91618,0.35194 1.78298,0.38015 2.62506,0.0376 0.84481,-0.34349 1.49749,-0.97882 1.94792,-1.91328 0.45399,-0.94184 0.56318,-1.85054 0.22576,-2.70289 -0.33647,-0.85973 -1.07315,-1.51566 -2.13192,-1.9249 z m -38.56473,0.62573 0.61426,1.45252 c 0.97895,-0.41397 1.9721,-0.79064 2.97641,-1.13145 -0.65348,1.76282 -1.18392,3.53209 -1.57931,5.29346 l 0.31824,0.73425 c 1.70268,-0.73844 3.4729,-1.34864 5.2865,-1.84204 l -0.41565,-1.52316 c -1.04364,0.28435 -2.07485,0.60657 -3.08949,0.96862 0.53237,-1.74745 1.19252,-3.49496 1.9684,-5.22809 l -0.20412,-0.75044 c -1.99269,0.54337 -3.95795,1.21557 -5.87524,2.02633 z m 10.2522,-1.56029 c 0.4539,-0.0837 0.83275,0.006 1.12268,0.23934 0.19803,0.15915 0.35835,0.38417 0.47202,0.68595 l 0,0 0,0 c 0.0621,0.16495 0.11023,0.35258 0.14327,0.56497 0.0382,0.24524 0.0544,0.47011 0.051,0.67546 l 0,0 0,0 c -0.007,0.40758 -0.0904,0.74006 -0.23544,1.00795 -0.2008,0.37601 -0.52509,0.60928 -0.99136,0.69721 -0.39127,0.0738 -0.74792,0.004 -1.04211,-0.19295 -0.31193,-0.21421 -0.51343,-0.50936 -0.59989,-0.90489 l -0.17906,-0.81916 c -0.10769,-0.49269 -0.0395,-0.91626 0.19064,-1.27989 0.21625,-0.34553 0.57669,-0.58337 1.06826,-0.67399 z m 27.67458,2.36463 c 0.54023,0.20794 0.86607,0.53123 0.9989,0.90666 0.14628,0.4059 0.10817,0.91341 -0.16549,1.5504 -0.26939,0.62705 -0.60752,1.00262 -0.97763,1.18731 -0.34094,0.17261 -0.7638,0.18527 -1.25787,-0.005 -0.47914,-0.18483 -0.79949,-0.48494 -0.96522,-0.87397 -0.1714,-0.40238 -0.18412,-0.89848 0.0227,-1.50481 0.21716,-0.63665 0.5394,-1.03861 0.94642,-1.24612 0.38996,-0.20108 0.86688,-0.21865 1.39819,-0.0141 z m -38.6935,3.70271 0.0734,0.14673 c 0.13705,0.2742 0.18977,0.53635 0.17075,0.78849 -0.007,0.0975 -0.0253,0.19368 -0.0533,0.28878 -0.0949,0.32268 -0.30765,0.58567 -0.63345,0.76456 -0.24217,0.13296 -0.44767,0.16581 -0.60319,0.136 -0.15476,-0.0329 -0.29385,-0.13134 -0.38482,-0.28886 -0.16175,-0.28009 -0.15315,-0.45194 -0.10199,-0.5529 0.0888,-0.18021 0.28628,-0.40492 0.64259,-0.66243 0.23732,-0.17082 0.47709,-0.33896 0.71909,-0.50436 0.0569,-0.0388 0.11384,-0.0775 0.17094,-0.11601 z m 19.04427,-4.57572 0.006,0.1643 c 0.0143,0.42564 -0.10984,0.76204 -0.34756,1.0294 -0.22486,0.25312 -0.5347,0.40155 -0.9127,0.42406 -0.28104,0.0167 -0.48462,-0.0422 -0.61417,-0.1362 -0.1276,-0.0965 -0.21137,-0.24539 -0.22513,-0.4268 -0.0245,-0.32237 0.0587,-0.47375 0.14909,-0.54265 0.15941,-0.12443 0.43583,-0.24183 0.87044,-0.3237 0.35698,-0.0665 0.71519,-0.12936 1.07452,-0.18841 z"
       id="path22"
       style="font-size:12px;font-family:System-ui;-inkscape-font-specification:System-ui;white-space:pre;fill:#ff9b31;fill-opacity:1;stroke:none;stroke-width:3.77953;stroke-linecap:round;stroke-linejoin:round;stroke-dasharray:none;stroke-opacity:1;paint-order:stroke fill markers"
       transform="matrix(0.26182498,0.03810536,-0.03918763,0.26926143,14.437785,-9.3723872)"
       aria-label="Gazpacho"
       inkscape:path-effect="#path-effect24;#path-effect26;#path-effect27"
       inkscape:original-d="m 247.59766,364.52585 q -1.26563,0.71484 -2.8125,0.71484 -1.79883,0 -2.91211,-1.16015 -1.10743,-1.16016 -1.10743,-3.07032 0,-1.95117 1.23047,-3.19921 1.23633,-1.25391 3.12891,-1.25391 1.37109,0 2.30273,0.44531 v 1.08985 q -1.01953,-0.64454 -2.41406,-0.64454 -1.41211,0 -2.31445,0.97266 -0.90235,0.97266 -0.90235,2.51953 0,1.59375 0.8379,2.50781 0.83789,0.90821 2.27343,0.90821 0.98438,0 1.70508,-0.39258 v -2.35547 h -1.83984 v -0.89062 h 2.82422 z m 6.11718,0.57422 h -0.96093 v -0.9375 h -0.0234 q -0.62695,1.07812 -1.8457,1.07812 -0.89649,0 -1.40625,-0.47461 -0.50391,-0.47461 -0.50391,-1.25976 0,-1.68164 1.98047,-1.95703 l 1.79883,-0.25196 q 0,-1.52929 -1.23633,-1.52929 -1.08399,0 -1.95703,0.73828 v -0.98438 q 0.88476,-0.5625 2.03906,-0.5625 2.11523,0 2.11523,2.23828 z m -0.96093,-3.03516 -1.44727,0.19922 q -0.66797,0.0937 -1.00781,0.33399 -0.33985,0.23437 -0.33985,0.83789 0,0.43945 0.31055,0.7207 0.31641,0.27539 0.83789,0.27539 0.71485,0 1.17774,-0.49805 0.46875,-0.5039 0.46875,-1.27148 z m 6.95507,-2.68945 -3.55078,4.9043 h 3.51563 v 0.82031 h -4.92774 v -0.29883 l 3.55078,-4.88086 h -3.21679 v -0.82031 h 4.6289 z m 2.22657,4.85742 h -0.0234 v 3.62695 h -0.96094 v -8.75976 h 0.96094 v 1.05469 h 0.0234 q 0.70898,-1.19532 2.07422,-1.19532 1.16015,0 1.81054,0.8086 0.65039,0.80273 0.65039,2.15625 0,1.50586 -0.73242,2.41406 -0.73242,0.90234 -2.00391,0.90234 -1.16601,0 -1.79882,-1.00781 z m -0.0234,-2.41992 v 0.83789 q 0,0.74414 0.48047,1.26562 0.48633,0.51563 1.23047,0.51563 0.87304,0 1.36523,-0.66797 0.49805,-0.66797 0.49805,-1.85742 0,-1.00195 -0.46289,-1.57031 -0.46289,-0.56836 -1.25391,-0.56836 -0.83789,0 -1.34766,0.58593 -0.50976,0.58008 -0.50976,1.45899 z m 10.38867,3.28711 h -0.96094 v -0.9375 h -0.0234 q -0.62696,1.07812 -1.84571,1.07812 -0.89648,0 -1.40625,-0.47461 -0.5039,-0.47461 -0.5039,-1.25976 0,-1.68164 1.98047,-1.95703 l 1.79882,-0.25196 q 0,-1.52929 -1.23632,-1.52929 -1.08399,0 -1.95704,0.73828 v -0.98438 q 0.88477,-0.5625 2.03907,-0.5625 2.11523,0 2.11523,2.23828 z m -0.96094,-3.03516 -1.44726,0.19922 q -0.66797,0.0937 -1.00781,0.33399 -0.33985,0.23437 -0.33985,0.83789 0,0.43945 0.31055,0.7207 0.3164,0.27539 0.83789,0.27539 0.71484,0 1.17773,-0.49805 0.46875,-0.5039 0.46875,-1.27148 z m 6.86133,2.75977 q -0.6914,0.41601 -1.64062,0.41601 -1.28321,0 -2.07422,-0.83203 -0.78516,-0.83789 -0.78516,-2.16797 0,-1.48242 0.84961,-2.3789 0.84961,-0.90235 2.26758,-0.90235 0.79101,0 1.39453,0.29297 v 0.98438 q -0.66797,-0.46875 -1.42969,-0.46875 -0.91992,0 -1.51172,0.66211 -0.58593,0.65625 -0.58593,1.72851 0,1.05469 0.55078,1.66406 0.55664,0.60938 1.48828,0.60938 0.78516,0 1.47656,-0.52148 z m 6.4336,0.27539 h -0.96094 v -3.45703 q 0,-1.875 -1.39453,-1.875 -0.70313,0 -1.1836,0.54492 -0.48047,0.53906 -0.48047,1.38867 v 3.39844 h -0.96093 v -8.88281 h 0.96093 v 3.8789 h 0.0234 q 0.69141,-1.13672 1.96875,-1.13672 2.02735,0 2.02735,2.44336 z m 4.31835,0.14062 q -1.33007,0 -2.12695,-0.83789 -0.79101,-0.84375 -0.79101,-2.23242 0,-1.51172 0.82617,-2.36133 0.82617,-0.84961 2.23242,-0.84961 1.3418,0 2.0918,0.82618 0.75586,0.82617 0.75586,2.29101 0,1.43555 -0.81446,2.30274 -0.80859,0.86132 -2.17383,0.86132 z m 0.0703,-5.47265 q -0.92578,0 -1.46485,0.63281 -0.53906,0.62695 -0.53906,1.73437 0,1.06641 0.54492,1.68165 0.54492,0.61523 1.45899,0.61523 0.93164,0 1.42968,-0.60352 0.50391,-0.60351 0.50391,-1.71679 0,-1.125 -0.50391,-1.73438 -0.49804,-0.60937 -1.42968,-0.60937 z"
       inkscape:export-filename="logo.svg"
       inkscape:export-xdpi="96.640373"
       inkscape:export-ydpi="96.640373" />
    <path
       d="m 272.61639,350.53349 -1.37811,9.54564 c 0.56542,0.0809 1.12882,0.17235 1.68973,0.27446 l 0.68116,-3.71453 c 0.0877,-0.47845 0.30112,-0.81953 0.623,-1.04108 0.31785,-0.22132 0.68332,-0.28936 1.06129,-0.20849 0.72954,0.15607 1.01238,0.63285 0.75811,1.70342 l -0.88547,3.72823 c 0.55342,0.1308 1.10373,0.27238 1.65046,0.42482 l 1.09616,-3.91962 c 0.48004,-1.7165 -0.10324,-2.98275 -1.92428,-3.3873 -0.70557,-0.15675 -1.35141,-0.0965 -1.91331,0.159 l 0.59135,-3.22477 c -0.68152,-0.12632 -1.36504,-0.23955 -2.05009,-0.33978 z m -39.30775,10.04325 c -1.33924,1.14038 -2.08619,2.54775 -2.17018,4.00203 -0.0837,1.45 0.51888,2.58544 1.60662,3.45153 1.05846,0.84277 2.20406,1.20042 3.36099,1.17387 1.16778,-0.0299 2.14058,-0.43306 3.04966,-1.21723 0.77326,-0.66702 1.36419,-1.4277 1.80151,-2.35314 0.0314,-0.0653 0.0632,-0.13052 0.0952,-0.19575 l -2.49165,-3.64403 c -1.114,0.76322 -2.18416,1.59652 -3.19478,2.50225 l 1.09737,1.22688 c 0.49022,-0.4385 0.99641,-0.85967 1.51644,-1.26383 l 1.06428,1.36954 c -0.19968,0.3638 -0.48136,0.7053 -0.87064,1.03883 -0.65561,0.56172 -1.29786,0.81247 -2.00777,0.79506 -0.7031,-0.0195 -1.44797,-0.31954 -2.16639,-0.98988 -0.69297,-0.64659 -1.0257,-1.38363 -0.9774,-2.237 0.0473,-0.83625 0.465,-1.64323 1.24562,-2.31233 0.81155,-0.69562 1.65471,-1.08703 2.471,-1.20351 0.25899,-0.0374 0.51722,-0.0713 0.77466,-0.10171 l -1.14762,-1.65784 c -0.094,0.0233 -0.18797,0.0471 -0.28203,0.0714 -0.88967,0.22905 -1.83593,0.74534 -2.77492,1.54489 z m 7.92927,-2.44158 c -0.86966,0.4553 -1.53844,1.08176 -1.96868,1.84067 -0.0384,0.0676 -0.0766,0.13518 -0.11452,0.20287 l 1.06761,1.70267 c 0.0998,-0.26973 0.2038,-0.53937 0.31182,-0.80874 0.26772,-0.67026 0.72863,-1.17746 1.35388,-1.50802 0.29962,-0.1584 0.56062,-0.19762 0.79419,-0.0887 0.14816,0.0691 0.2854,0.19764 0.41676,0.39371 -0.0541,0.0362 -0.10815,0.0725 -0.16208,0.10899 -0.39255,0.2648 -0.77981,0.53697 -1.16102,0.81633 -1.34107,0.98178 -1.62805,2.14731 -0.89677,3.26565 0.33665,0.51483 0.79683,0.84155 1.35696,0.96052 0.57048,0.11775 1.11815,-0.008 1.68485,-0.325 0.41419,-0.23154 0.7291,-0.53105 0.95017,-0.89978 0.0398,-0.0658 0.0765,-0.13387 0.11024,-0.20408 l 0.15018,0.30046 c 0.49952,-0.25082 1.00598,-0.48956 1.51872,-0.71653 l -1.73025,-3.91307 c -0.59189,-1.3386 -1.6413,-1.88121 -3.05446,-1.39921 0,0 0,0 0,0 -0.20335,0.0687 -0.41303,0.15895 -0.6276,0.27129 z m 13.56639,-4.56578 c -0.76211,0.13604 -1.37248,0.46443 -1.812,0.95111 l -0.0939,-0.42962 c -0.64187,0.14027 -1.28181,0.29325 -1.91914,0.45926 l 2.39552,9.21673 c 0.51517,-0.13323 1.03457,-0.25687 1.55755,-0.37125 l -0.6553,-2.99784 c 0.45874,0.2019 0.9564,0.25433 1.50176,0.15257 0.48098,-0.0897 0.89797,-0.25044 1.25631,-0.49129 0.34148,-0.22766 0.62952,-0.5282 0.86573,-0.90772 0.46845,-0.758 0.63951,-1.67665 0.51306,-2.7388 -0.11438,-0.96083 -0.46007,-1.73455 -1.10221,-2.27342 -0.37647,-0.31827 -0.81023,-0.51534 -1.2967,-0.59388 0,0 0,0 0,0 -0.37332,-0.0613 -0.77812,-0.053 -1.21067,0.0242 z m 7.01947,-0.80465 c -0.95537,0.0479 -1.80156,0.32185 -2.50127,0.80981 -0.0625,0.0434 -0.12477,0.0869 -0.18693,0.13053 l 0.19972,1.99862 c 0.20744,-0.19702 0.4173,-0.39287 0.62955,-0.58747 0.52703,-0.48453 1.14943,-0.74335 1.84561,-0.77931 0.54683,-0.0283 0.86573,0.18457 0.96229,0.78539 -0.52918,0.0859 -1.05598,0.17976 -1.58014,0.28145 -1.61029,0.31161 -2.39663,1.21175 -2.24751,2.54171 0.0685,0.61126 0.33531,1.10857 0.80016,1.46359 0.47351,0.35734 1.04413,0.48299 1.71503,0.44019 0.57798,-0.0369 1.06721,-0.22147 1.47199,-0.54952 l 0.0113,0.33643 c 0.57405,-0.0191 1.14834,-0.0281 1.7224,-0.0269 l 0.01,-4.29005 c 0.004,-1.67715 -0.96507,-2.64901 -2.85205,-2.55443 z m 7.59971,0.15285 c -1.18568,-0.10814 -2.19466,0.17651 -2.94629,0.83736 -0.75402,0.65859 -1.09939,1.54451 -1.11629,2.61554 -0.0153,0.9722 0.27796,1.79056 0.86849,2.45478 0.59546,0.66012 1.36496,1.01096 2.30439,1.08954 0.68655,0.0574 1.30761,-0.0277 1.87648,-0.27927 0.0656,-0.0293 0.13141,-0.0585 0.1973,-0.0875 l 0.24109,-1.87055 c -0.23003,0.12414 -0.45828,0.24996 -0.68473,0.37741 -0.44648,0.25196 -0.88889,0.35007 -1.32937,0.31145 -0.531,-0.0466 -0.93685,-0.2508 -1.21007,-0.57687 -0.28048,-0.33836 -0.43008,-0.8047 -0.39678,-1.43752 0.0336,-0.6381 0.24677,-1.11548 0.61523,-1.44582 0.36703,-0.32869 0.84517,-0.48009 1.40051,-0.43009 0.46686,0.042 0.90832,0.21856 1.29806,0.53494 0.20195,0.1639 0.40194,0.32899 0.59994,0.49521 l 0.24957,-1.93251 c -0.0757,-0.0447 -0.15159,-0.0892 -0.22765,-0.13352 -0.49587,-0.28865 -1.08192,-0.46259 -1.73988,-0.52261 z m 13.70706,3.17662 c -1.10306,-0.42635 -2.13425,-0.44497 -3.01477,-0.0429 -0.8887,0.40576 -1.4432,1.1644 -1.75041,2.20279 -0.28508,0.96357 -0.22938,1.84724 0.15858,2.6512 0.3935,0.80072 1.04508,1.34879 1.93978,1.69247 0.91618,0.35194 1.78298,0.38015 2.62506,0.0376 0.84481,-0.34349 1.49749,-0.97882 1.94792,-1.91328 0.45399,-0.94184 0.56318,-1.85054 0.22576,-2.70289 -0.33647,-0.85973 -1.07315,-1.51566 -2.13192,-1.9249 z m -38.56473,0.62573 0.61426,1.45252 c 0.97895,-0.41397 1.9721,-0.79064 2.97641,-1.13145 -0.65348,1.76282 -1.18392,3.53209 -1.57931,5.29346 l 0.31824,0.73425 c 1.70268,-0.73844 3.4729,-1.34864 5.2865,-1.84204 l -0.41565,-1.52316 c -1.04364,0.28435 -2.07485,0.60657 -3.08949,0.96862 0.53237,-1.74745 1.19252,-3.49496 1.9684,-5.22809 l -0.20412,-0.75044 c -1.99269,0.54337 -3.95795,1.21557 -5.87524,2.02633 z m 10.2522,-1.56029 c 0.4539,-0.0837 0.83275,0.006 1.12268,0.23934 0.19803,0.15915 0.35835,0.38417 0.47202,0.68595 0,0 0,0 0,0 0,0 0,0 0,0 0.0621,0.16495 0.11023,0.35258 0.14327,0.56497 0.0382,0.24524 0.0544,0.47011 0.051,0.67546 0,0 0,0 0,0 0,0 0,0 0,0 -0.007,0.40758 -0.0904,0.74006 -0.23544,1.00795 -0.2008,0.37601 -0.52509,0.60928 -0.99136,0.69721 -0.39127,0.0738 -0.74792,0.004 -1.04211,-0.19295 -0.31193,-0.21421 -0.51343,-0.50936 -0.59989,-0.90489 l -0.17906,-0.81916 c -0.10769,-0.49269 -0.0395,-0.91626 0.19064,-1.27989 0.21625,-0.34553 0.57669,-0.58337 1.06826,-0.67399 z m 27.67458,2.36463 c 0.54023,0.20794 0.86607,0.53123 0.9989,0.90666 0.14628,0.4059 0.10817,0.91341 -0.16549,1.5504 -0.26939,0.62705 -0.60752,1.00262 -0.97763,1.18731 -0.34094,0.17261 -0.7638,0.18527 -1.25787,-0.005 -0.47914,-0.18483 -0.79949,-0.48494 -0.96522,-0.87397 -0.1714,-0.40238 -0.18412,-0.89848 0.0227,-1.50481 0.21716,-0.63665 0.5394,-1.03861 0.94642,-1.24612 0.38996,-0.20108 0.86688,-0.21865 1.39819,-0.0141 z m -38.6935,3.70271 0.0734,0.14673 c 0.13705,0.2742 0.18977,0.53635 0.17075,0.78849 -0.007,0.0975 -0.0253,0.19368 -0.0533,0.28878 -0.0949,0.32268 -0.30765,0.58567 -0.63345,0.76456 -0.24217,0.13296 -0.44767,0.16581 -0.60319,0.136 -0.15476,-0.0329 -0.29385,-0.13134 -0.38482,-0.28886 -0.16175,-0.28009 -0.15315,-0.45194 -0.10199,-0.5529 0.0888,-0.18021 0.28628,-0.40492 0.64259,-0.66243 0.23732,-0.17082 0.47709,-0.33896 0.71909,-0.50436 0.0569,-0.0388 0.11384,-0.0775 0.17094,-0.11601 z m 19.04427,-4.57572 0.006,0.1643 c 0.0143,0.42564 -0.10984,0.76204 -0.34756,1.0294 -0.22486,0.25312 -0.5347,0.40155 -0.9127,0.42406 -0.28104,0.0167 -0.48462,-0.0422 -0.61417,-0.1362 -0.1276,-0.0965 -0.21137,-0.24539 -0.22513,-0.4268 -0.0245,-0.32237 0.0587,-0.47375 0.14909,-0.54265 0.15941,-0.12443 0.43583,-0.24183 0.87044,-0.3237 0.35698,-0.0665 0.71519,-0.12936 1.07452,-0.18841 z"
       id="path19"
       style="font-size:12px;font-family:System-ui;-inkscape-font-specification:System-ui;white-space:pre;fill:#ed7a00;stroke:none;stroke-width:3.77953;stroke-linecap:round;stroke-linejoin:round;stroke-dasharray:none;stroke-opacity:1;paint-order:stroke fill markers"
       transform="matrix(0.26182498,0.03810536,-0.03810536,0.26182498,14.072769,-6.8643304)"
       aria-label="Gazpacho"
       inkscape:path-effect="#path-effect20;#path-effect22"
       inkscape:original-d="m 247.59766,364.52585 q -1.26563,0.71484 -2.8125,0.71484 -1.79883,0 -2.91211,-1.16015 -1.10743,-1.16016 -1.10743,-3.07032 0,-1.95117 1.23047,-3.19921 1.23633,-1.25391 3.12891,-1.25391 1.37109,0 2.30273,0.44531 v 1.08985 q -1.01953,-0.64454 -2.41406,-0.64454 -1.41211,0 -2.31445,0.97266 -0.90235,0.97266 -0.90235,2.51953 0,1.59375 0.8379,2.50781 0.83789,0.90821 2.27343,0.90821 0.98438,0 1.70508,-0.39258 v -2.35547 h -1.83984 v -0.89062 h 2.82422 z m 6.11718,0.57422 h -0.96093 v -0.9375 h -0.0234 q -0.62695,1.07812 -1.8457,1.07812 -0.89649,0 -1.40625,-0.47461 -0.50391,-0.47461 -0.50391,-1.25976 0,-1.68164 1.98047,-1.95703 l 1.79883,-0.25196 q 0,-1.52929 -1.23633,-1.52929 -1.08399,0 -1.95703,0.73828 v -0.98438 q 0.88476,-0.5625 2.03906,-0.5625 2.11523,0 2.11523,2.23828 z m -0.96093,-3.03516 -1.44727,0.19922 q -0.66797,0.0937 -1.00781,0.33399 -0.33985,0.23437 -0.33985,0.83789 0,0.43945 0.31055,0.7207 0.31641,0.27539 0.83789,0.27539 0.71485,0 1.17774,-0.49805 0.46875,-0.5039 0.46875,-1.27148 z m 6.95507,-2.68945 -3.55078,4.9043 h 3.51563 v 0.82031 h -4.92774 v -0.29883 l 3.55078,-4.88086 h -3.21679 v -0.82031 h 4.6289 z m 2.22657,4.85742 h -0.0234 v 3.62695 h -0.96094 v -8.75976 h 0.96094 v 1.05469 h 0.0234 q 0.70898,-1.19532 2.07422,-1.19532 1.16015,0 1.81054,0.8086 0.65039,0.80273 0.65039,2.15625 0,1.50586 -0.73242,2.41406 -0.73242,0.90234 -2.00391,0.90234 -1.16601,0 -1.79882,-1.00781 z m -0.0234,-2.41992 v 0.83789 q 0,0.74414 0.48047,1.26562 0.48633,0.51563 1.23047,0.51563 0.87304,0 1.36523,-0.66797 0.49805,-0.66797 0.49805,-1.85742 0,-1.00195 -0.46289,-1.57031 -0.46289,-0.56836 -1.25391,-0.56836 -0.83789,0 -1.34766,0.58593 -0.50976,0.58008 -0.50976,1.45899 z m 10.38867,3.28711 h -0.96094 v -0.9375 h -0.0234 q -0.62696,1.07812 -1.84571,1.07812 -0.89648,0 -1.40625,-0.47461 -0.5039,-0.47461 -0.5039,-1.25976 0,-1.68164 1.98047,-1.95703 l 1.79882,-0.25196 q 0,-1.52929 -1.23632,-1.52929 -1.08399,0 -1.95704,0.73828 v -0.98438 q 0.88477,-0.5625 2.03907,-0.5625 2.11523,0 2.11523,2.23828 z m -0.96094,-3.03516 -1.44726,0.19922 q -0.66797,0.0937 -1.00781,0.33399 -0.33985,0.23437 -0.33985,0.83789 0,0.43945 0.31055,0.7207 0.3164,0.27539 0.83789,0.27539 0.71484,0 1.17773,-0.49805 0.46875,-0.5039 0.46875,-1.27148 z m 6.86133,2.75977 q -0.6914,0.41601 -1.64062,0.41601 -1.28321,0 -2.07422,-0.83203 -0.78516,-0.83789 -0.78516,-2.16797 0,-1.48242 0.84961,-2.3789 0.84961,-0.90235 2.26758,-0.90235 0.79101,0 1.39453,0.29297 v 0.98438 q -0.66797,-0.46875 -1.42969,-0.46875 -0.91992,0 -1.51172,0.66211 -0.58593,0.65625 -0.58593,1.72851 0,1.05469 0.55078,1.66406 0.55664,0.60938 1.48828,0.60938 0.78516,0 1.47656,-0.52148 z m 6.4336,0.27539 h -0.96094 v -3.45703 q 0,-1.875 -1.39453,-1.875 -0.70313,0 -1.1836,0.54492 -0.48047,0.53906 -0.48047,1.38867 v 3.39844 h -0.96093 v -8.88281 h 0.96093 v 3.8789 h 0.0234 q 0.69141,-1.13672 1.96875,-1.13672 2.02735,0 2.02735,2.44336 z m 4.31835,0.14062 q -1.33007,0 -2.12695,-0.83789 -0.79101,-0.84375 -0.79101,-2.23242 0,-1.51172 0.82617,-2.36133 0.82617,-0.84961 2.23242,-0.84961 1.3418,0 2.0918,0.82618 0.75586,0.82617 0.75586,2.29101 0,1.43555 -0.81446,2.30274 -0.80859,0.86132 -2.17383,0.86132 z m 0.0703,-5.47265 q -0.92578,0 -1.46485,0.63281 -0.53906,0.62695 -0.53906,1.73437 0,1.06641 0.54492,1.68165 0.54492,0.61523 1.45899,0.61523 0.93164,0 1.42968,-0.60352 0.50391,-0.60351 0.50391,-1.71679 0,-1.125 -0.50391,-1.73438 -0.49804,-0.60937 -1.42968,-0.60937 z"
       inkscape:export-filename="logo.svg"
       inkscape:export-xdpi="96.640373"
       inkscape:export-ydpi="96.640373" />
  </g>
</svg>
